<?xml version="1.0" encoding="UTF-8"?>
<svg width="300" height="400" xmlns="http://www.w3.org/2000/svg">
 <metadata id="metadata7">image/svg+xml</metadata>
 <g>
  <path fill="#ffffff" stroke="#000000" stroke-width="0.800485" stroke-miterlimit="4" id="Hand53" d="m25.643339,96.1259l0,3.242371l2.269131,5.998917l2.10792,5.025543l5.836479,6.80864l-3.242489,4.053413l-4.215839,-3.890991l-3.242491,-5.187996l-2.755199,-6.6474l-0.32486,-5.511627l2.593979,-3.404549l0.97337,-0.48632l0,0z"/>
  <path fill="#ffffff" stroke="#000000" stroke-width="0.800485" stroke-miterlimit="4" id="Hand50" d="m25.80505,96.287987l0,3.566673l2.269701,5.836349l2.26969,5.187843l5.674229,6.647011l3.40456,-4.215195l4.539379,-2.431831l-5.836369,-7.133278l-5.512089,-4.863632l-4.863661,-2.431778l-1.94544,-0.162163z"/>
  <path fill="#ffffff" stroke="#000000" stroke-width="0.800485" stroke-miterlimit="4" id="Hand51" d="m25.80505,95.963707l4.701521,-1.945427l5.35,0.486359l4.053009,2.593933l4.86364,4.215118l3.8909,4.215179l0.648479,1.945427l-4.863621,3.404541l-6.322739,-6.971169l-5.674229,-4.863647l-4.37726,-2.431839l-2.269701,-0.648476z"/>
  <path fill="#ffffff" stroke="#000000" stroke-width="0.800485" stroke-miterlimit="4" id="Hand49" d="m32.77626,121.416718l3.013149,-4.444397l9.145931,11.901962l5.836361,6.809097l-3.242432,6.322693l-5.836361,-8.592377l-6.646957,-9.727295l-2.269691,-2.269684z"/>
  <path fill="#ffffff" stroke="#000000" stroke-width="0.800485" stroke-miterlimit="4" id="Hand46" d="m36.180801,117.363708l3.404537,-4.05304l4.701511,-2.431831l14.5909,15.077293l-5.998482,5.836349l-1.78334,4.052994l-7.295437,-8.268143l-7.61969,-10.213623z"/>
  <path fill="#ffffff" stroke="#000000" stroke-width="0.800485" stroke-miterlimit="4" id="Hand47" d="m44.611111,110.878853l5.18787,-3.566673l14.792343,16.480743l-5.322174,2.918144l-9.900898,-10.387215l-4.757141,-5.445z"/>
  <path fill="#ffffff" stroke="#000000" stroke-width="0.800485" stroke-miterlimit="4" id="Hand43" d="m64.389877,123.524307l15.07724,14.590866l-3.89093,5.025818l-16.698437,-16.860634l5.512127,-2.75605z"/>
  <path fill="#ffffff" stroke="#000000" stroke-width="0.800485" stroke-miterlimit="4" id="Hand45" d="m47.52927,142.168228l3.242432,-6.484848l7.133327,11.348511l7.943924,7.781799l-2.269691,9.565109l-11.348461,-15.401505l-4.70153,-6.809067z"/>
  <path fill="#ffffff" stroke="#000000" stroke-width="0.800485" stroke-miterlimit="4" id="Hand42" d="m51.095928,136.00766l2.107594,-4.539383l5.674198,-5.025757l9.8894,9.889404l6.484863,6.809067l-9.240906,11.51059l-8.106049,-7.457596l-6.809101,-11.186325z"/>
  <path fill="#ffffff" stroke="#000000" stroke-width="0.800485" stroke-miterlimit="4" id="Hand30" d="m64.06562,164.703018l1.621208,2.269669l0.972725,14.590958l0.97274,2.269699l6.160599,-5.187927l9.403015,-4.701477l9.565155,-2.593964l2.59391,0.162109l-3.890923,-18.481781l-2.593948,-6.646957l-13.456032,-3.080322l-9.24086,11.024216l-2.10759,10.375778z"/>
  <path fill="#ffffff" stroke="#000000" stroke-width="0.800485" stroke-miterlimit="4" id="Hand31" d="m89.032471,146.544968l2.756416,6.809845l3.566139,17.995514l29.506027,-7.619568l-2.10791,-20.751907l-0.648491,-8.916534l-11.185669,-7.295914l-14.104523,5.836472l-7.78199,13.942093l0,0z"/>
  <path fill="#ffffff" stroke="#000000" stroke-width="0.800485" stroke-miterlimit="4" id="Hand32" d="m122.10495,133.737885l2.756073,29.830292l7.943878,-1.134857l10.213623,0.486359l6.971207,0.810577l4.539429,-22.859039l-9.078812,-11.51059l-15.077225,-3.8909l-8.268173,8.268158z"/>
  <path fill="#ffffff" stroke="#000000" stroke-width="0.800485" stroke-miterlimit="4" id="Hand105" d="m111.080688,126.442497l7.295502,-1.296989l6.646957,-0.486359l4.701462,1.134872l-7.457542,7.943939l-11.186378,-7.295464z"/>
  <path fill="#ffffff" stroke="#000000" stroke-width="0.800485" stroke-miterlimit="4" id="Hand57" d="m84.817093,103.259201l5.836365,-2.269699l5.836395,32.100006l-6.160652,1.945389l-0.486343,-4.539368l-2.269684,-6.646957l-0.648476,-5.674225l-1.783348,-11.186356l-0.324257,-3.72879z"/>
  <path fill="#ffffff" stroke="#000000" stroke-width="0.800485" stroke-miterlimit="4" id="Hand54" d="m90.815582,100.989502l12.969688,-3.728806l3.566666,10.537872l2.269691,12.645432l1.13485,6.809113l-14.266624,5.512115l-5.674271,-31.775726z"/>
  <path fill="#ffffff" stroke="#000000" stroke-width="0.800485" stroke-miterlimit="4" id="Hand55" d="m104.109528,97.098602l6.160576,-0.486374l6.322723,23.021179l1.621193,5.836334l-7.133331,1.296997l-6.971161,-29.668137z"/>
  <path fill="#ffffff" stroke="#000000" stroke-width="0.800485" stroke-miterlimit="4" id="Hand61" d="m81.736809,74.725906l4.86364,-3.728806l2.431778,13.131805l1.783356,16.860596l-6.160576,2.593925l-1.296974,-11.348465l-0.162125,-9.565132l-1.459099,-7.943924z"/>
  <path fill="#ffffff" stroke="#000000" stroke-width="0.800485" stroke-miterlimit="4" id="Hand58" d="m86.762497,70.834999l7.1334,-2.4319l4.539406,-0.486298l2.2696,9.403l2.756096,19.940895l-12.645401,3.728806l-1.783394,-17.671204l-2.269707,-12.483299l0,0z"/>
  <path fill="#ffffff" stroke="#000000" stroke-width="0.800485" stroke-miterlimit="4" id="Hand65" d="m81.736809,74.725906l5.187889,-3.728806l-2.593979,-11.186352l0,-8.916637l1.621223,-8.268162l0.486374,-2.431839l-3.566658,1.45908l-3.080292,3.080311l-1.94548,4.701508l0.648506,5.350002l1.134811,5.99847l1.29702,8.916676l0.810585,5.025749z"/>
  <path fill="#ffffff" stroke="#000000" stroke-width="0.800485" stroke-miterlimit="4" id="Hand62" d="m87.24942,70.834976l5.51162,-2.269745l5.998894,-0.648369l-1.621841,-8.268284l-2.594002,-9.402977l-3.403687,-5.512131l-2.593994,-3.404541l-2.107918,-0.972752l-0.973358,5.025803l-1.134567,5.674179l0.16243,9.07885l2.756424,10.699966l0,0l0,0z"/>
  <path fill="#ffffff" stroke="#000000" stroke-width="0.800485" stroke-miterlimit="4" id="Hand59" d="m103.030289,96.936462l7.401932,-0.486343l-2.756073,-13.456062l-2.269684,-9.56514l-1.296936,-5.025749l-5.349991,-0.162125l1.352554,8.849518l2.918198,19.845901z"/>
  <path fill="#ffffff" stroke="#000000" stroke-width="0.800485" stroke-miterlimit="4" id="Hand63" d="m98.759499,68.078903l5.6745,0.648499l-0.973,-10.700001l-2.756096,-9.240902l-2.431702,-5.998501l-7.457603,-2.431797l-3.8909,0l3.080299,2.593998l4.863602,7.4575l2.4319,9.565201l1.459,8.106003l0,0z"/>
  <path fill="#ffffff" stroke="#000000" stroke-width="0.800485" stroke-miterlimit="4" id="Hand75" d="m131.021591,25.5917l3.566666,0.822121l4.05304,1.45912l3.566635,3.40451l4.05304,10.21365l3.080292,12.321171l0.486343,5.187889l-6.646957,-1.783352l-2.431824,-10.537868l-5.187805,-11.996941l-3.566711,-6.16058l-0.972717,-2.92972z"/>
  <path fill="#ffffff" stroke="#000000" stroke-width="0.800485" stroke-miterlimit="4" id="Hand77" d="m131.060944,25.92746l-5.065125,0.97271l-2.756027,4.539371l-1.621231,3.40456l-0.486374,6.48484l0.810623,11.18634l0.486343,8.268169l5.187897,-2.593922l-0.648468,-8.106049l-0.162125,-10.05151l2.431824,-9.40303l1.593384,-3.78442l0.229279,-0.917061z"/>
  <path fill="#ffffff" stroke="#000000" stroke-width="0.800485" stroke-miterlimit="4" id="Hand74" d="m127.941299,58.513779l5.674194,-1.78331l9.565155,0.648472l-2.269653,-10.375771l-5.025772,-11.672699l-5.025726,-9.078751l-3.890915,13.7803l-0.162125,9.889351l1.134842,8.592407z"/>
  <path fill="#ffffff" stroke="#000000" stroke-width="0.800485" stroke-miterlimit="4" id="Hand73" d="m122.10495,60.945599l0.810593,30.478748l6.322739,0.97271l-0.648468,-18.157539l-0.648514,-10.537868l0,-5.349968l-5.836349,2.593918z"/>
  <path fill="#ffffff" stroke="#000000" stroke-width="0.800485" stroke-miterlimit="4" id="Hand70" d="m129.238281,92.234962l16.049942,0.648468l-1.783279,-35.18026l-9.565155,-1.13485l-6.160606,1.945457l1.459099,33.721184z"/>
  <path fill="#ffffff" stroke="#000000" stroke-width="0.800485" stroke-miterlimit="4" id="Hand71" d="m145.450348,92.559196l8.268204,-0.324234l-1.296997,-16.374229l-2.431824,-17.022724l-6.484787,-1.621201l1.945404,35.342388z"/>
  <path fill="#ffffff" stroke="#000000" stroke-width="0.800485" stroke-miterlimit="4" id="Hand69" d="m122.591003,91.424301l0.161995,12.483696l0.163002,10.862l0.542,7.284004l0.256996,2.604996l6.334,1.297005l-0.487,-5.188004l0,-28.370895l-6.970993,-0.972702l0,-0.000099z"/>
  <path fill="#ffffff" stroke="#000000" stroke-width="0.800485" stroke-miterlimit="4" id="Hand67" d="m153.718552,92.234962l-0.486404,38.422676l-7.133331,-1.621231l0.972748,-17.509064l-1.134811,-16.536316l-0.972748,-2.269707l8.754547,-0.486359z"/>
  <path fill="#ffffff" stroke="#000000" stroke-width="0.800485" stroke-miterlimit="4" id="Hand66" d="m144.964005,93.04557l1.134811,3.566658l0.972748,14.752998l-1.134811,17.671181l-15.401535,-3.40451l-0.972748,-4.70153l0.16214,-29.019646l15.239395,1.13485z"/>
  <path fill="#ffffff" stroke="#000000" stroke-width="0.800485" stroke-miterlimit="4" id="Hand104" d="m145.450348,129.360641l9.403015,11.348495l14.104584,-3.8909l-5.836365,-4.215164l-4.539459,-0.106506l-4.215103,-0.866226l-3.242401,-1.296967l-5.674271,-0.972733z"/>
  <path fill="#ffffff" stroke="#000000" stroke-width="0.800485" stroke-miterlimit="4" id="Hand81" d="m163.607925,132.440948l10.862091,-21.399956l5.5121,-8.59243l4.215179,3.72879l-14.753006,31.127243l-5.836365,-4.863647z"/>
  <path fill="#ffffff" stroke="#000000" stroke-width="0.800485" stroke-miterlimit="4" id="Hand78" d="m169.44429,137.628784l16.049973,8.268188l8.430344,-14.104523l5.836319,-14.590897l0.648514,-3.242401l-16.049988,-7.61972l-6.971207,14.590912l-7.943954,16.698441z"/>
  <path fill="#ffffff" stroke="#000000" stroke-width="0.800485" stroke-miterlimit="4" id="Hand79" d="m185.656433,146.383347l5.836349,7.133331l8.592392,-17.995499l7.295425,-19.454437l-7.133301,-1.945496l-0.486374,3.404572l-5.998489,14.915131l-8.106003,13.942398z"/>
  <path fill="#ffffff" stroke="#000000" stroke-width="0.800485" stroke-miterlimit="4" id="Hand85" d="m189.223053,78.130417l-9.40303,23.993919l4.377274,4.215141l10.213654,-23.507538l1.78331,-4.701523l-6.971207,0z"/>
  <path fill="#ffffff" stroke="#000000" stroke-width="0.800485" stroke-miterlimit="4" id="Hand82" d="m196.518509,78.292526l-12.159058,28.371185l16.049988,7.295441l4.863632,-13.131821l4.377228,-17.346924l-13.13179,-5.187881z"/>
  <path fill="#ffffff" stroke="#000000" stroke-width="0.800485" stroke-miterlimit="4" id="Hand83" d="m209.812424,83.804642l-4.539352,17.833298l-4.701508,12.321213l7.133286,1.94545l4.215179,-16.049995l3.728745,-12.32119l-5.836349,-3.728775z"/>
  <path fill="#ffffff" stroke="#000000" stroke-width="0.800485" stroke-miterlimit="4" id="Hand86" d="m209.32608,53.325909l-7.94397,8.430271l-3.728745,9.889381l-1.459106,6.484856l13.942413,5.5121l2.269699,-10.862106l-0.810638,-11.510571l-1.296936,-6.484852l-0.972717,-1.45908z"/>
  <path fill="#ffffff" stroke="#000000" stroke-width="0.800485" stroke-miterlimit="4" id="Hand89" d="m209.001831,53.16378l-5.187897,0l-7.133331,5.836369l-3.40451,8.430271l-4.226685,10.213631l0.660019,0.972717l6.646957,-0.324242l1.621231,-6.322739l3.890884,-10.537838l7.133331,-8.268169z"/>
  <path fill="#ffffff" stroke="#000000" stroke-width="0.800485" stroke-miterlimit="4" id="Hand87" d="m209.974548,53.325909l1.78331,8.106041l0.648514,11.024227l-2.269745,11.18634l5.377823,4.120201l3.05249,-9.470192l-0.162125,-12.483307l-1.78331,-8.106049l-3.72876,-3.080292l-2.918198,-1.29697z"/>
  <path fill="#ffffff" stroke="#000000" stroke-width="0.800485" stroke-miterlimit="4" id="Hand33" d="m154.52916,140.709137l-4.701523,23.183304l11.510635,0.810577l10.537872,2.593948l8.754517,4.863632l5.5121,6.809082l0.810608,0.486343l-0.810608,-6.646942l2.918167,-10.537872l2.431854,-8.916641l-5.99852,-7.781799l-16.374191,-8.268173l-14.590912,3.404541z"/>
  <path fill="#ffffff" stroke="#000000" stroke-width="0.800485" stroke-miterlimit="4" id="Hand27" d="m67.46962,183.832993l0,12.321457l-0.161209,13.456009l0.323639,12.483902l1.459427,2.917633l-0.486076,6.808624l17.184593,-1.945496l9.565033,0.32486l16.860947,-2.269135l-6.809845,-18.320389l-5.349174,-18.967636l-4.053421,-12.969971l-0.648506,-6.161331l-1.945496,-0.323639l-10.375969,2.917633l-9.402618,4.701904l-6.161324,5.025574l0,0z"/>
  <path fill="#ffffff" stroke="#000000" stroke-width="0.800485" stroke-miterlimit="4" id="Hand28" d="m112.539787,227.930237l14.104546,-2.593933l6.322693,-17.671204l2.918198,-6.97113l8.916656,-12.159134l10.537903,-10.213623l7.781799,-7.619705l5.998489,-2.269699l1.134842,-1.459045l-8.430298,-2.269684l-12.645477,-0.972748l-16.212112,-1.296951l-8.754517,1.296951l-28.695412,7.457535l0.486336,6.160614l3.404579,10.700027l4.539345,16.698425l8.59243,23.183304z"/>
  <path fill="#ffffff" stroke="#000000" stroke-width="0.800485" stroke-miterlimit="4" id="Hand29" d="m126.482162,225.498444l5.836395,-15.563644l3.404541,-9.240906l8.754517,-11.834839l9.889404,-9.565155l8.592438,-8.268204l4.377258,-2.107513l2.756073,-1.134842l0,-0.810654l4.215134,1.296967l5.5121,3.242432l5.187866,5.67424l2.26973,2.756119l1.296967,5.187836l1.459061,2.756027l1.391907,2.376144l1.688385,5.892059l1.621231,4.701431l0.324249,11.024292l-10.862122,0.810623l-14.104507,4.539398l-12.969727,3.72879l-14.266632,2.107544l-10.862122,2.107544l-5.512146,0.32431z"/>
  <path fill="#ffffff" stroke="#000000" stroke-width="0.800485" stroke-miterlimit="4" id="Hand107" d="m195.059418,211.556015l8.106049,-0.324249l6.971207,-1.459106l-0.810593,-5.674225l1.134842,-4.377228l-4.377289,0.972687l-6.971207,-0.486343l-4.215134,-1.783279l-0.972733,-0.648544l1.134857,3.40451l0,10.375778z"/>
  <path fill="#ffffff" stroke="#000000" stroke-width="0.800485" stroke-miterlimit="4" id="Hand34" d="m210.298798,209.44841l13.456039,-5.187851l10.051529,-5.836365l4.377258,-1.945404l-1.621216,-4.701584l0.810608,-4.863647l-6.971191,2.269684l-8.106094,3.728851l-6.809082,4.215164l-5.187851,2.918167l-0.972717,4.215134l0.972717,5.187851z"/>
  <path fill="#ffffff" stroke="#000000" stroke-width="0.800485" stroke-miterlimit="4" id="Hand38" d="m238.669952,196.47879l7.781799,-0.32428l12.159058,0.810593l11.672729,2.756104l5.836395,3.080246l4.701508,3.365234l0.486389,-4.662201l-3.728821,-6.160568l-5.674316,-3.080292l-6.322632,-4.539383l-9.403046,-2.756088l-10.375732,0l-7.133331,1.459137l-0.972748,0.648483l-0.972687,4.052963l1.945435,5.350052z"/>
  <path fill="#ffffff" stroke="#000000" stroke-width="0.800485" stroke-miterlimit="4" id="Hand40" d="m243.209351,208.962067l5.998474,7.295425l9.402985,-3.890915l5.998535,-1.78331l6.160583,0.324249l3.242401,0.324249l5.187805,-1.783356l1.297028,-2.431824l-0.972656,-1.296967l-4.21524,-0.648468l-7.781769,0.648468l-10.051483,0.324295l-8.268188,1.78331l-5.998474,1.134842z"/>
  <path fill="#ffffff" stroke="#000000" stroke-width="0.800485" stroke-miterlimit="4" id="Hand39" d="m237.859375,197.289322l1.621185,5.025803l3.080322,5.674194l0.648468,1.297012l13.942383,-3.242416l11.024231,-0.324295l7.61969,-0.810562l3.566681,0.810562l-5.025787,-4.215134l-3.56662,-1.459061l-8.106049,-2.431824l-6.484863,-0.810623l-8.592407,-0.486389l-8.106049,0.162201l-1.621185,0.810532z"/>
  <path fill="#ffffff" stroke="#000000" stroke-width="0.800485" stroke-miterlimit="4" id="Hand36" d="m200.409393,243.493835l3.566666,8.106079l7.295425,-3.728821l10.051529,-10.375732l12.159012,-11.834808l11.024292,-6.646957l4.863647,-2.756073l-6.484863,-7.29541l-9.889404,7.133286l-11.996933,11.18634l-11.348511,9.403015l-9.24086,6.809082z"/>
  <path fill="#ffffff" stroke="#000000" stroke-width="0.800485" stroke-miterlimit="4" id="Hand35" d="m195.383667,211.880264l1.134842,14.590897l4.053055,16.536316l18.96814,-14.428772l9.403015,-8.592377l4.377258,-4.539398l9.727234,-6.809113l-3.890869,-6.97113l-1.459106,-5.025833l-4.701508,2.107605l-9.078766,5.5121l-12.807526,4.863632l-5.998535,1.783325l-9.727234,0.972748z"/>
  <path fill="#ffffff" stroke="#000000" stroke-width="0.800485" stroke-miterlimit="4" id="Hand26" d="m200.571518,243.493835l3.404541,8.430328l-8.268143,4.863586l-9.72731,5.998474l-11.024216,6.322754l-6.646957,5.674225l-4.053009,4.539398l-12.483337,-1.134857l-0.648468,-1.783295l4.05304,-4.863647l11.834808,-7.295441l16.698486,-11.024231l13.456024,-7.781799l3.404541,-1.945496z"/>
  <path fill="#ffffff" stroke="#000000" stroke-width="0.800485" stroke-miterlimit="4" id="Hand25" d="m126.806,225.660995l-0.648003,6.322006l0.486,5.026001l0.973,5.511993l1.782997,5.999008l3.081009,5.511993l2.755997,5.998001l5.511993,6.322998l6.971008,7.457001l3.567001,3.243011l3.890991,-5.674011l15.239014,-9.402985l10.375992,-6.972015l13.617996,-7.780991l6.322998,-3.891006l-3.890991,-17.347l-1.621002,-14.266998l-10.863007,0.811005l-15.401001,5.187988l-11.185989,3.080002l-10.052002,1.459l-11.024002,2.108002l-9.889999,1.296997l0,0z"/>
  <path fill="#ffffff" stroke="#000000" stroke-width="0.800485" stroke-miterlimit="4" id="Hand23" d="m68.76712,232.145386l1.783348,10.862091l3.404541,10.051514l2.431778,6.646973l-0.324211,4.053009l17.671165,2.918152l5.512108,-13.131775l4.701508,-11.34848l5.512146,-10.213623l2.756035,-4.05304l-13.618156,1.783356l-5.025764,0.486328l-9.240898,-0.486328l-15.563599,2.431824z"/>
  <path fill="#ffffff" stroke="#000000" stroke-width="0.800485" stroke-miterlimit="4" id="Hand24" d="m94.058029,266.839233l11.348434,-0.972717l10.700027,1.297028l8.592392,1.621155l14.753006,5.350006l8.754562,3.080322l3.40451,0.972717l-2.431824,-3.404572l-6.484787,-6.322693l-4.21521,-4.863617l-3.40451,-3.8909l-5.998474,-11.834869l-2.269699,-11.186371l-0.324295,-6.971161l0.324295,-4.215118l-13.942421,2.593933l-2.431816,2.107513l-3.080284,6.322754l-4.86364,9.727234l-4.05304,9.889404l-3.566628,7.61969l-0.8106,3.080261z"/>
  <path fill="#ffffff" stroke="#000000" stroke-width="0.800485" stroke-miterlimit="4" id="Arm19" d="m75.900452,263.758972l-2.918159,16.536346l17.022697,3.56662l3.080284,-17.509033l-17.184822,-2.593933z"/>
  <path fill="#ffffff" stroke="#000000" stroke-width="0.800485" stroke-miterlimit="4" id="Arm20" d="m89.842857,283.861969l30.640862,5.025726l4.215164,-19.940857l-8.916672,-1.783295l-9.078728,-0.810638l-8.268227,0.16214l-5.349983,0.324188l-3.242416,17.022736z"/>
  <path fill="#ffffff" stroke="#000000" stroke-width="0.800485" stroke-miterlimit="4" id="Arm21" d="m120.808006,289.049835l28.046913,6.971222l2.918167,-17.833344l-13.942413,-4.701508l-11.18634,-3.72876l-1.621185,-0.486389l-4.215141,19.778778z"/>
  <path fill="#ffffff" stroke="#000000" stroke-width="0.800485" stroke-miterlimit="4" id="Arm22" d="m164.418564,279.48468l-2.107574,5.350037l-2.593948,11.024231l-10.699997,0.486359l2.918167,-18.643921l12.483353,1.783295z"/>
  <path fill="#ffffff" stroke="#000000" stroke-width="0.800485" stroke-miterlimit="4" id="Arm18" d="m72.749786,280.315918l-27.054287,107.758636l33.473972,3.668365l11.005135,-108.217163l-17.42482,-3.209839z"/>
  <path fill="#ffffff" stroke="#000000" stroke-width="0.800485" stroke-miterlimit="4" id="Arm13" d="m79.398727,391.97226l33.932465,5.043976l7.107552,-108.217163l-30.493423,-5.273315l-10.546593,108.446503z"/>
  <path fill="#ffffff" stroke="#000000" stroke-width="0.800485" stroke-miterlimit="4" id="Arm14" d="m113.331223,396.786987l7.107521,-108.217194l28.659172,7.336761l-10.775833,98.816956l-24.99086,2.063477z"/>
  <path fill="#ffffff" stroke="#000000" stroke-width="0.800485" stroke-miterlimit="4" id="Arm15" d="m138.322083,394.723511l14.673508,-2.98056l6.87825,-96.065704l-10.546631,-0.229309l-11.005127,99.275574z"/>
  <ellipse ry="8.548936" rx="8.548936" id="Hand90" cy="84.604258" cx="18.548936" stroke="#000000" fill="#ffffff"/>
  <ellipse id="Hand91" ry="8.548936" rx="8.548936" cy="27.204256" cx="84.497875" stroke="#000000" fill="#ffffff"/>
  <ellipse id="Hand92" ry="8.548936" rx="8.548936" cy="12.548936" cx="132.127664" stroke="#000000" fill="#ffffff"/>
  <ellipse id="Hand93" ry="8.548936" rx="8.548936" cy="40.638299" cx="211.510646" stroke="#000000" fill="#ffffff"/>
  <ellipse id="Hand94" ry="8.548936" rx="8.548936" cy="187.191496" cx="288.451074" stroke="#000000" fill="#ffffff"/>
  <title>Layer 1</title>
  <path fill="#ffffff" stroke="#000000" stroke-width="0.800485" stroke-miterlimit="4" id="Hand106" d="m96.327728,132.927307l-7.619675,13.61821l-12.969727,-3.404526l4.215164,-5.350006l4.215126,0.324188l4.539436,-1.621216l1.296936,-1.296951l6.322739,-2.269699z"/>
 </g>
</svg>